<svg width="237" height="155" viewBox="0 0 237 155" fill="none" xmlns="http://www.w3.org/2000/svg">
<circle cx="118.5" cy="36.5" r="118.5" fill="white"/>
<path d="M119 98.0635V119" stroke="#21496D" stroke-width="5" stroke-linecap="round" stroke-linejoin="round"/>
<path d="M138.304 112.894C140.546 111.688 142.318 109.78 143.339 107.471C144.36 105.162 144.573 102.583 143.943 100.142C143.313 97.7007 141.876 95.5359 139.86 93.9892C137.843 92.4425 135.362 91.602 132.808 91.6003H129.91C129.214 88.9455 127.917 86.4807 126.116 84.3915C124.314 82.3022 122.057 80.6427 119.511 79.5378C116.966 78.4329 114.2 77.9113 111.422 78.0123C108.643 78.1133 105.923 78.8341 103.467 80.1207C101.012 81.4073 98.8837 83.2261 97.2434 85.4405C95.6031 87.6548 94.4933 90.207 93.9972 92.9051C93.5012 95.6033 93.6319 98.3773 94.3795 101.019C95.1271 103.66 96.4722 106.099 98.3136 108.154" stroke="#21496D" stroke-width="5" stroke-linecap="round" stroke-linejoin="round"/>
<path d="M128.596 107.659L119 98.0635L109.404 107.659" stroke="#21496D" stroke-width="5" stroke-linecap="round" stroke-linejoin="round"/>
</svg>
