<svg width="94" height="69" viewBox="0 0 94 69" fill="none" xmlns="http://www.w3.org/2000/svg">
<path d="M10.8159 65H8.71582L3.32861 56.4253V65H1.22852V52.9141H3.32861L8.73242 61.522V52.9141H10.8159V65ZM17.0581 65.166C15.7798 65.166 14.7422 64.7648 13.9453 63.9624C13.154 63.1545 12.7583 62.0809 12.7583 60.7417V60.4927C12.7583 59.5962 12.9299 58.7965 13.2729 58.0938C13.6216 57.3854 14.1086 56.8348 14.7339 56.4419C15.3592 56.049 16.0565 55.8525 16.8257 55.8525C18.0487 55.8525 18.9922 56.2427 19.6562 57.0229C20.3258 57.8032 20.6606 58.9072 20.6606 60.335V61.1484H14.792C14.8529 61.89 15.0991 62.4766 15.5308 62.9082C15.9679 63.3398 16.5158 63.5557 17.1743 63.5557C18.0985 63.5557 18.8511 63.1821 19.4321 62.4351L20.5195 63.4727C20.1598 64.0094 19.6784 64.4272 19.0752 64.7261C18.4775 65.0194 17.8052 65.166 17.0581 65.166ZM16.8174 57.4712C16.264 57.4712 15.8158 57.6649 15.4727 58.0522C15.1351 58.4396 14.9193 58.9792 14.8252 59.6709H18.6685V59.5215C18.6242 58.8464 18.4443 58.3372 18.1289 57.9941C17.8135 57.6455 17.3763 57.4712 16.8174 57.4712ZM25.4585 58.9736L27.1685 56.0186H29.4097L26.6621 60.4429L29.501 65H27.2764L25.4834 61.9287L23.6987 65H21.4575L24.2964 60.4429L21.5571 56.0186H23.7817L25.4585 58.9736ZM33.311 53.8354V56.0186H34.8965V57.5127H33.311V62.5264C33.311 62.8695 33.3774 63.1185 33.5103 63.2734C33.6486 63.4229 33.8921 63.4976 34.2407 63.4976C34.4731 63.4976 34.7083 63.4699 34.9463 63.4146V64.9751C34.487 65.1024 34.0443 65.166 33.6182 65.166C32.0687 65.166 31.2939 64.311 31.2939 62.6011V57.5127H29.8164V56.0186H31.2939V53.8354H33.311ZM42.9731 60.5093V65H40.873V52.9141H45.4966C46.8468 52.9141 47.9176 53.2655 48.709 53.9683C49.5059 54.6711 49.9043 55.6007 49.9043 56.7573C49.9043 57.9416 49.5142 58.863 48.7339 59.5215C47.9591 60.18 46.8717 60.5093 45.4717 60.5093H42.9731ZM42.9731 58.8242H45.4966C46.2437 58.8242 46.8136 58.6499 47.2065 58.3013C47.5994 57.9471 47.7959 57.438 47.7959 56.7739C47.7959 56.1209 47.5967 55.6007 47.1982 55.2134C46.7998 54.8205 46.252 54.6185 45.5547 54.6074H42.9731V58.8242ZM56.2544 57.8613C55.9888 57.8171 55.7148 57.7949 55.4326 57.7949C54.5085 57.7949 53.8859 58.1491 53.5649 58.8574V65H51.5479V56.0186H53.4736L53.5234 57.0229C54.0104 56.2427 54.6855 55.8525 55.5488 55.8525C55.8366 55.8525 56.0745 55.8913 56.2627 55.9688L56.2544 57.8613ZM56.8521 60.4263C56.8521 59.5464 57.0264 58.755 57.375 58.0522C57.7236 57.3439 58.2134 56.8016 58.8442 56.4253C59.4751 56.0435 60.2 55.8525 61.019 55.8525C62.231 55.8525 63.2132 56.2427 63.9658 57.0229C64.724 57.8032 65.1335 58.8381 65.1943 60.1274L65.2026 60.6006C65.2026 61.486 65.0311 62.2773 64.688 62.9746C64.3504 63.6719 63.8634 64.2114 63.2271 64.5933C62.5962 64.9751 61.8657 65.166 61.0356 65.166C59.7684 65.166 58.7529 64.7454 57.9893 63.9043C57.2311 63.0576 56.8521 61.9315 56.8521 60.5259V60.4263ZM58.8691 60.6006C58.8691 61.5247 59.0601 62.2497 59.4419 62.7754C59.8237 63.2956 60.355 63.5557 61.0356 63.5557C61.7163 63.5557 62.2448 63.29 62.6211 62.7588C63.0029 62.2275 63.1938 61.45 63.1938 60.4263C63.1938 59.5187 62.9974 58.7993 62.6045 58.2681C62.2171 57.7368 61.6886 57.4712 61.019 57.4712C60.3605 57.4712 59.8376 57.734 59.4502 58.2598C59.0628 58.7799 58.8691 59.5602 58.8691 60.6006ZM69.0127 56.0186V65.7969C69.0127 66.7155 68.783 67.4155 68.3237 67.897C67.87 68.384 67.2031 68.6274 66.3232 68.6274C65.9525 68.6274 65.5955 68.5804 65.2524 68.4863V66.8926C65.4627 66.9424 65.7007 66.9673 65.9663 66.9673C66.6359 66.9673 66.979 66.6021 66.9956 65.8716V56.0186H69.0127ZM66.8213 53.686C66.8213 53.3761 66.9181 53.1188 67.1118 52.9141C67.311 52.7093 67.5933 52.6069 67.9585 52.6069C68.3237 52.6069 68.606 52.7093 68.8052 52.9141C69.0044 53.1188 69.104 53.3761 69.104 53.686C69.104 53.9904 69.0044 54.245 68.8052 54.4497C68.606 54.6489 68.3237 54.7485 67.9585 54.7485C67.5933 54.7485 67.311 54.6489 67.1118 54.4497C66.9181 54.245 66.8213 53.9904 66.8213 53.686ZM75.1304 65.166C73.8521 65.166 72.8145 64.7648 72.0176 63.9624C71.2262 63.1545 70.8306 62.0809 70.8306 60.7417V60.4927C70.8306 59.5962 71.0021 58.7965 71.3452 58.0938C71.6938 57.3854 72.1808 56.8348 72.8062 56.4419C73.4315 56.049 74.1287 55.8525 74.8979 55.8525C76.1209 55.8525 77.0645 56.2427 77.7285 57.0229C78.3981 57.8032 78.7329 58.9072 78.7329 60.335V61.1484H72.8643C72.9251 61.89 73.1714 62.4766 73.603 62.9082C74.0402 63.3398 74.5881 63.5557 75.2466 63.5557C76.1707 63.5557 76.9233 63.1821 77.5044 62.4351L78.5918 63.4727C78.2321 64.0094 77.7507 64.4272 77.1475 64.7261C76.5498 65.0194 75.8774 65.166 75.1304 65.166ZM74.8896 57.4712C74.3363 57.4712 73.888 57.6649 73.5449 58.0522C73.2074 58.4396 72.9915 58.9792 72.8975 59.6709H76.7407V59.5215C76.6965 58.8464 76.5166 58.3372 76.2012 57.9941C75.8857 57.6455 75.4486 57.4712 74.8896 57.4712ZM83.9956 63.5557C84.4992 63.5557 84.917 63.409 85.249 63.1157C85.5811 62.8224 85.7581 62.46 85.7803 62.0283H87.6812C87.659 62.5872 87.4847 63.1102 87.1582 63.5972C86.8317 64.0786 86.389 64.4604 85.8301 64.7427C85.2712 65.0249 84.668 65.166 84.0205 65.166C82.7643 65.166 81.7682 64.7593 81.0322 63.9458C80.2962 63.1323 79.9282 62.009 79.9282 60.5757V60.3682C79.9282 59.0013 80.2935 57.9084 81.0239 57.0894C81.7544 56.2648 82.7505 55.8525 84.0122 55.8525C85.0802 55.8525 85.9491 56.1652 86.6187 56.7905C87.2938 57.4103 87.6479 58.2266 87.6812 59.2393H85.7803C85.7581 58.7246 85.5811 58.3013 85.249 57.9692C84.9225 57.6372 84.5047 57.4712 83.9956 57.4712C83.3426 57.4712 82.839 57.7091 82.4849 58.1851C82.1307 58.6554 81.9508 59.3721 81.9453 60.335V60.6587C81.9453 61.6326 82.1196 62.3604 82.4683 62.8418C82.8224 63.3177 83.3315 63.5557 83.9956 63.5557ZM91.7319 53.8354V56.0186H93.3174V57.5127H91.7319V62.5264C91.7319 62.8695 91.7983 63.1185 91.9312 63.2734C92.0695 63.4229 92.313 63.4976 92.6616 63.4976C92.894 63.4976 93.1292 63.4699 93.3672 63.4146V64.9751C92.9079 65.1024 92.4652 65.166 92.0391 65.166C90.4896 65.166 89.7148 64.311 89.7148 62.6011V57.5127H88.2373V56.0186H89.7148V53.8354H91.7319Z" fill="#21496D"/>
<circle r="21" transform="matrix(-1 0 0 1 42 21)" fill="#D8E5F5"/>
<path d="M34.5 21.25H51" stroke="#21496D" stroke-width="3" stroke-linecap="round" stroke-linejoin="round"/>
<path d="M42.75 29.5L51 21.25L42.75 13" stroke="#21496D" stroke-width="3" stroke-linecap="round" stroke-linejoin="round"/>
</svg>
