<svg width="125" height="69" viewBox="0 0 125 69" fill="none" xmlns="http://www.w3.org/2000/svg">
<path d="M3.32861 60.5093V65H1.22852V52.9141H5.85205C7.20231 52.9141 8.27311 53.2655 9.06445 53.9683C9.86133 54.6711 10.2598 55.6007 10.2598 56.7573C10.2598 57.9416 9.86963 58.863 9.08936 59.5215C8.31462 60.18 7.22721 60.5093 5.82715 60.5093H3.32861ZM3.32861 58.8242H5.85205C6.59912 58.8242 7.16911 58.6499 7.56201 58.3013C7.95492 57.9471 8.15137 57.438 8.15137 56.7739C8.15137 56.1209 7.95215 55.6007 7.55371 55.2134C7.15527 54.8205 6.60742 54.6185 5.91016 54.6074H3.32861V58.8242ZM16.6099 57.8613C16.3442 57.8171 16.0703 57.7949 15.7881 57.7949C14.8639 57.7949 14.2414 58.1491 13.9204 58.8574V65H11.9033V56.0186H13.8291L13.8789 57.0229C14.3659 56.2427 15.041 55.8525 15.9043 55.8525C16.1921 55.8525 16.43 55.8913 16.6182 55.9688L16.6099 57.8613ZM21.6733 65.166C20.395 65.166 19.3574 64.7648 18.5605 63.9624C17.7692 63.1545 17.3735 62.0809 17.3735 60.7417V60.4927C17.3735 59.5962 17.5451 58.7965 17.8882 58.0938C18.2368 57.3854 18.7238 56.8348 19.3491 56.4419C19.9744 56.049 20.6717 55.8525 21.4409 55.8525C22.6639 55.8525 23.6074 56.2427 24.2715 57.0229C24.9411 57.8032 25.2759 58.9072 25.2759 60.335V61.1484H19.4072C19.4681 61.89 19.7144 62.4766 20.146 62.9082C20.5832 63.3398 21.131 63.5557 21.7896 63.5557C22.7137 63.5557 23.4663 63.1821 24.0474 62.4351L25.1348 63.4727C24.7751 64.0094 24.2936 64.4272 23.6904 64.7261C23.0928 65.0194 22.4204 65.166 21.6733 65.166ZM21.4326 57.4712C20.8792 57.4712 20.431 57.6649 20.0879 58.0522C19.7503 58.4396 19.5345 58.9792 19.4404 59.6709H23.2837V59.5215C23.2394 58.8464 23.0596 58.3372 22.7441 57.9941C22.4287 57.6455 21.9915 57.4712 21.4326 57.4712ZM29.8994 62.4434L31.8003 56.0186H33.8838L30.771 65H29.0195L25.8818 56.0186H27.9736L29.8994 62.4434ZM37.2954 65H35.2783V56.0186H37.2954V65ZM35.1538 53.686C35.1538 53.3761 35.2507 53.1188 35.4443 52.9141C35.6436 52.7093 35.9258 52.6069 36.291 52.6069C36.6562 52.6069 36.9385 52.7093 37.1377 52.9141C37.3369 53.1188 37.4365 53.3761 37.4365 53.686C37.4365 53.9904 37.3369 54.245 37.1377 54.4497C36.9385 54.6489 36.6562 54.7485 36.291 54.7485C35.9258 54.7485 35.6436 54.6489 35.4443 54.4497C35.2507 54.245 35.1538 53.9904 35.1538 53.686ZM39.1216 60.4263C39.1216 59.5464 39.2959 58.755 39.6445 58.0522C39.9932 57.3439 40.4829 56.8016 41.1138 56.4253C41.7446 56.0435 42.4696 55.8525 43.2886 55.8525C44.5005 55.8525 45.4827 56.2427 46.2354 57.0229C46.9935 57.8032 47.403 58.8381 47.4639 60.1274L47.4722 60.6006C47.4722 61.486 47.3006 62.2773 46.9575 62.9746C46.62 63.6719 46.133 64.2114 45.4966 64.5933C44.8657 64.9751 44.1353 65.166 43.3052 65.166C42.0379 65.166 41.0225 64.7454 40.2588 63.9043C39.5007 63.0576 39.1216 61.9315 39.1216 60.5259V60.4263ZM41.1387 60.6006C41.1387 61.5247 41.3296 62.2497 41.7114 62.7754C42.0933 63.2956 42.6245 63.5557 43.3052 63.5557C43.9858 63.5557 44.5143 63.29 44.8906 62.7588C45.2725 62.2275 45.4634 61.45 45.4634 60.4263C45.4634 59.5187 45.2669 58.7993 44.874 58.2681C44.4867 57.7368 43.9582 57.4712 43.2886 57.4712C42.63 57.4712 42.1071 57.734 41.7197 58.2598C41.3324 58.7799 41.1387 59.5602 41.1387 60.6006ZM54.6191 64.1201C54.027 64.8174 53.1859 65.166 52.0957 65.166C51.1217 65.166 50.383 64.881 49.8794 64.311C49.3813 63.741 49.1323 62.9165 49.1323 61.8374V56.0186H51.1494V61.8125C51.1494 62.9525 51.6226 63.5225 52.5688 63.5225C53.5483 63.5225 54.2096 63.1711 54.5527 62.4683V56.0186H56.5698V65H54.6689L54.6191 64.1201ZM63.6587 62.5596C63.6587 62.1999 63.5093 61.9259 63.2104 61.7378C62.9172 61.5496 62.4274 61.3836 61.7412 61.2397C61.055 61.0959 60.4823 60.9132 60.0229 60.6919C59.0158 60.2049 58.5122 59.4993 58.5122 58.5752C58.5122 57.8005 58.8387 57.153 59.4917 56.6328C60.1447 56.1126 60.9748 55.8525 61.9819 55.8525C63.0555 55.8525 63.9215 56.1182 64.5801 56.6494C65.2441 57.1807 65.5762 57.8696 65.5762 58.7163H63.5591C63.5591 58.3289 63.4152 58.008 63.1274 57.7534C62.8397 57.4933 62.4578 57.3633 61.9819 57.3633C61.5392 57.3633 61.1768 57.4657 60.8945 57.6704C60.6178 57.8752 60.4795 58.1491 60.4795 58.4922C60.4795 58.8021 60.6095 59.0428 60.8696 59.2144C61.1297 59.3859 61.6554 59.5602 62.4468 59.7373C63.2381 59.9089 63.8579 60.1164 64.3062 60.3599C64.7599 60.5978 65.0947 60.8856 65.3105 61.2231C65.5319 61.5607 65.6426 61.9702 65.6426 62.4517C65.6426 63.2596 65.3078 63.9154 64.6382 64.4189C63.9686 64.917 63.0915 65.166 62.0068 65.166C61.2708 65.166 60.6151 65.0332 60.0396 64.7676C59.464 64.502 59.0158 64.1367 58.6948 63.6719C58.3739 63.207 58.2134 62.7062 58.2134 62.1694H60.1724C60.2 62.6453 60.3799 63.0133 60.7119 63.2734C61.0439 63.528 61.4839 63.6553 62.0317 63.6553C62.563 63.6553 62.967 63.5557 63.2437 63.3564C63.5203 63.1517 63.6587 62.8861 63.6587 62.5596ZM73.9351 60.5093V65H71.835V52.9141H76.4585C77.8088 52.9141 78.8796 53.2655 79.6709 53.9683C80.4678 54.6711 80.8662 55.6007 80.8662 56.7573C80.8662 57.9416 80.4761 58.863 79.6958 59.5215C78.9211 60.18 77.8337 60.5093 76.4336 60.5093H73.9351ZM73.9351 58.8242H76.4585C77.2056 58.8242 77.7756 58.6499 78.1685 58.3013C78.5614 57.9471 78.7578 57.438 78.7578 56.7739C78.7578 56.1209 78.5586 55.6007 78.1602 55.2134C77.7617 54.8205 77.2139 54.6185 76.5166 54.6074H73.9351V58.8242ZM87.2163 57.8613C86.9507 57.8171 86.6768 57.7949 86.3945 57.7949C85.4704 57.7949 84.8478 58.1491 84.5269 58.8574V65H82.5098V56.0186H84.4355L84.4854 57.0229C84.9723 56.2427 85.6475 55.8525 86.5107 55.8525C86.7985 55.8525 87.0365 55.8913 87.2246 55.9688L87.2163 57.8613ZM87.814 60.4263C87.814 59.5464 87.9883 58.755 88.3369 58.0522C88.6855 57.3439 89.1753 56.8016 89.8062 56.4253C90.437 56.0435 91.1619 55.8525 91.981 55.8525C93.1929 55.8525 94.1751 56.2427 94.9277 57.0229C95.6859 57.8032 96.0954 58.8381 96.1562 60.1274L96.1646 60.6006C96.1646 61.486 95.993 62.2773 95.6499 62.9746C95.3123 63.6719 94.8254 64.2114 94.189 64.5933C93.5581 64.9751 92.8276 65.166 91.9976 65.166C90.7303 65.166 89.7148 64.7454 88.9512 63.9043C88.193 63.0576 87.814 61.9315 87.814 60.5259V60.4263ZM89.8311 60.6006C89.8311 61.5247 90.022 62.2497 90.4038 62.7754C90.7856 63.2956 91.3169 63.5557 91.9976 63.5557C92.6782 63.5557 93.2067 63.29 93.583 62.7588C93.9648 62.2275 94.1558 61.45 94.1558 60.4263C94.1558 59.5187 93.9593 58.7993 93.5664 58.2681C93.179 57.7368 92.6506 57.4712 91.981 57.4712C91.3224 57.4712 90.7995 57.734 90.4121 58.2598C90.0247 58.7799 89.8311 59.5602 89.8311 60.6006ZM99.9746 56.0186V65.7969C99.9746 66.7155 99.745 67.4155 99.2856 67.897C98.8319 68.384 98.165 68.6274 97.2852 68.6274C96.9144 68.6274 96.5575 68.5804 96.2144 68.4863V66.8926C96.4246 66.9424 96.6626 66.9673 96.9282 66.9673C97.5978 66.9673 97.9409 66.6021 97.9575 65.8716V56.0186H99.9746ZM97.7832 53.686C97.7832 53.3761 97.88 53.1188 98.0737 52.9141C98.2729 52.7093 98.5552 52.6069 98.9204 52.6069C99.2856 52.6069 99.5679 52.7093 99.7671 52.9141C99.9663 53.1188 100.066 53.3761 100.066 53.686C100.066 53.9904 99.9663 54.245 99.7671 54.4497C99.5679 54.6489 99.2856 54.7485 98.9204 54.7485C98.5552 54.7485 98.2729 54.6489 98.0737 54.4497C97.88 54.245 97.7832 53.9904 97.7832 53.686ZM106.092 65.166C104.814 65.166 103.776 64.7648 102.979 63.9624C102.188 63.1545 101.792 62.0809 101.792 60.7417V60.4927C101.792 59.5962 101.964 58.7965 102.307 58.0938C102.656 57.3854 103.143 56.8348 103.768 56.4419C104.393 56.049 105.091 55.8525 105.86 55.8525C107.083 55.8525 108.026 56.2427 108.69 57.0229C109.36 57.8032 109.695 58.9072 109.695 60.335V61.1484H103.826C103.887 61.89 104.133 62.4766 104.565 62.9082C105.002 63.3398 105.55 63.5557 106.208 63.5557C107.133 63.5557 107.885 63.1821 108.466 62.4351L109.554 63.4727C109.194 64.0094 108.713 64.4272 108.109 64.7261C107.512 65.0194 106.839 65.166 106.092 65.166ZM105.852 57.4712C105.298 57.4712 104.85 57.6649 104.507 58.0522C104.169 58.4396 103.953 58.9792 103.859 59.6709H107.703V59.5215C107.658 58.8464 107.479 58.3372 107.163 57.9941C106.848 57.6455 106.41 57.4712 105.852 57.4712ZM114.958 63.5557C115.461 63.5557 115.879 63.409 116.211 63.1157C116.543 62.8224 116.72 62.46 116.742 62.0283H118.643C118.621 62.5872 118.447 63.1102 118.12 63.5972C117.794 64.0786 117.351 64.4604 116.792 64.7427C116.233 65.0249 115.63 65.166 114.982 65.166C113.726 65.166 112.73 64.7593 111.994 63.9458C111.258 63.1323 110.89 62.009 110.89 60.5757V60.3682C110.89 59.0013 111.255 57.9084 111.986 57.0894C112.716 56.2648 113.712 55.8525 114.974 55.8525C116.042 55.8525 116.911 56.1652 117.581 56.7905C118.256 57.4103 118.61 58.2266 118.643 59.2393H116.742C116.72 58.7246 116.543 58.3013 116.211 57.9692C115.884 57.6372 115.467 57.4712 114.958 57.4712C114.305 57.4712 113.801 57.7091 113.447 58.1851C113.093 58.6554 112.913 59.3721 112.907 60.335V60.6587C112.907 61.6326 113.082 62.3604 113.43 62.8418C113.784 63.3177 114.293 63.5557 114.958 63.5557ZM122.694 53.8354V56.0186H124.279V57.5127H122.694V62.5264C122.694 62.8695 122.76 63.1185 122.893 63.2734C123.031 63.4229 123.275 63.4976 123.624 63.4976C123.856 63.4976 124.091 63.4699 124.329 63.4146V64.9751C123.87 65.1024 123.427 65.166 123.001 65.166C121.451 65.166 120.677 64.311 120.677 62.6011V57.5127H119.199V56.0186H120.677V53.8354H122.694Z" fill="#21496D"/>
<circle r="21" transform="matrix(1 -8.74228e-08 -8.74228e-08 -1 63 21)" fill="#D8E5F5"/>
<path d="M70.5 20.75L54 20.75" stroke="#21496D" stroke-width="3" stroke-linecap="round" stroke-linejoin="round"/>
<path d="M62.25 12.5L54 20.75L62.25 29" stroke="#21496D" stroke-width="3" stroke-linecap="round" stroke-linejoin="round"/>
</svg>
